# xmcd CD database file
#
# Track frame offsets:
#	150
#	25487
#	50282
#	75735
#	105713
#	129959
#	166410
#	193383
#	221610
#
# Disc length: 3334 seconds
#
# Revision: 0
# Processed by: cddbd v1.4PL0 Copyright (c) Steve Scherf et al.
# Submitted via: CDex 1.50Beta7
#
DISCID=7a0d0409
DTITLE=Walter Blanding - The Olive Tree
DYEAR=1999
DGENRE=Jazz
TTITLE0=Never Too Late
TTITLE1=My Little Sunflower
TTITLE2=Worry Later
TTITLE3=The Olive Tree
TTITLE4=Jitterbug Waltz
TTITLE5=The Nearness of You
TTITLE6=Charcoal Blues
TTITLE7=Out of Nowhere
TTITLE8=One Day Before Tomorrow
EXTD=YEAR: 1999
EXTT0=
EXTT1=
EXTT2=
EXTT3=
EXTT4=
EXTT5=
EXTT6=
EXTT7=
EXTT8=
PLAYORDER=
